<svg xmlns="http://www.w3.org/2000/svg" viewBox="0 0 312.98 309.98"><defs><style>.cls-1{fill:#000000;}</style></defs><g id="Capa_2" data-name="Capa 2"><g id="Capa_1-2" data-name="Capa 1"><path class="cls-1" d="M174.89,34a7.94,7.94,0,1,1,15.75,1.88A7.94,7.94,0,1,1,174.89,34Z" transform="translate(-10.24 -12.79)"/><path class="cls-1" d="M220.6,19.74l22.52,10.09-3,6.77-14.46-6.48-3.7,8.27,12.34,5.54-3,6.76L218.9,45.16,212.68,59l-8.07-3.62Z" transform="translate(-10.24 -12.79)"/><path class="cls-1" d="M241.6,50.86c8.24-9.76,18.48-10.7,26.54-3.89s8.81,17.1.59,26.82S250,84.75,242,77.94,233.35,60.62,241.6,50.86Zm20.21,17.08c5.06-6,5.48-11.69,1.4-15.14s-9.63-2.08-14.69,3.91-5.7,12-1.62,15.4S256.75,73.93,261.81,67.94Z" transform="translate(-10.24 -12.79)"/><path class="cls-1" d="M291.57,71.76l7.54,11.9c4.44,7,5.64,14.29-2.21,19.26-7.59,4.81-14.5,1.14-18.94-5.87l-2.8-4.43-11.89,7.53-4.73-7.47Zm-12.5,22.68,8.05,2.14-12,22.34-5.3-8.35Zm4.44-1.75c2.49,3.92,5.5,5,8.75,2.91s3-4.87.53-8.8L290.38,83l-9.29,5.88Z" transform="translate(-10.24 -12.79)"/><path class="cls-1" d="M298.3,127.26c12.76-2.38,21.73,4.67,23.54,14.38A16.47,16.47,0,0,1,319,154.13l-6.43-3.54a9.85,9.85,0,0,0,1.8-7.36c-1-5.27-6.42-8.56-14.12-7.12-7.9,1.47-11.81,6-10.76,11.63a10.33,10.33,0,0,0,5,6.85l-4.6,5.6a16.11,16.11,0,0,1-8-11.36C280.12,139.08,285.36,129.68,298.3,127.26Z" transform="translate(-10.24 -12.79)"/><path class="cls-1" d="M304.78,162.26c12.72,1.2,19.34,9.07,18.34,19.58s-9,17-21.69,15.78-19.67-9.11-18.68-19.61S292.06,161.05,304.78,162.26Zm-2.5,26.34c7.81.74,12.74-2.17,13.24-7.48s-3.79-9.1-11.59-9.84-13.07,2.14-13.58,7.45S294.48,187.86,302.28,188.6Z" transform="translate(-10.24 -12.79)"/><path class="cls-1" d="M316.1,215.71l-3.65,8.3-21.91,1.5-9.42.08-.1.22c4,1.28,9.26,2.84,13.48,4.7l12.64,5.56-3.39,7.71L268,228l3.64-8.29,22-1.49,9.38-.1.09-.22c-4.11-1.35-9.19-2.81-13.41-4.67l-12.71-5.59,3.4-7.71Z" transform="translate(-10.24 -12.79)"/><path class="cls-1" d="M269.49,234.57l1.35,7.79c-3.64.56-7.24,2.24-9.32,4.69-2.39,2.82-2.45,5.14-.68,6.64s3.92.4,7.2-1.3l4.94-2.47c3.88-2,8.9-2.81,13.23.86,5,4.19,5.16,12-.1,18.16a18.05,18.05,0,0,1-12,6.29l-1.37-7a12.65,12.65,0,0,0,7.58-4.21c2-2.33,2.26-4.63.55-6.07s-4.15-.16-7.39,1.56l-4.76,2.5c-4.56,2.4-8.91,2.62-13.13-.95-5-4.2-5.75-12,.27-19.08A21.52,21.52,0,0,1,269.49,234.57Z" transform="translate(-10.24 -12.79)"/><path class="cls-1" d="M265.66,288.63l-11.11,7.56c-7.11,4.84-14.58,6.2-19.93-1.66-5.17-7.6-1.65-14.91,5.2-19.57l4-2.72-7.47-11,7.31-5Zm-21.46-8.16c-4,2.74-4.7,5.82-2.41,9.19s5.29,3.12,9.25.43l3.36-2.29-6.64-9.75Z" transform="translate(-10.24 -12.79)"/><path class="cls-1" d="M229.68,310l-8.2,3.32L206.79,277.1l8.19-3.32Z" transform="translate(-10.24 -12.79)"/><path class="cls-1" d="M190.69,298.28l-5.08,6.6-16-19.66,9.76-1.66Zm16.09,20.29-13.88,2.36c-8.18,1.39-15.37-.31-16.92-9.47-1.51-8.86,4.54-13.82,12.72-15.21l5.17-.88-2.36-13.87,8.72-1.48Zm-16.19-15.52c-4.59.78-6.72,3.16-6.07,7s3.33,4.66,7.91,3.88l4.46-.75-1.84-10.84Z" transform="translate(-10.24 -12.79)"/><path class="cls-1" d="M155.56,322.77,145,321.66,137,281.48l9.3,1,3,20.24c.66,4,1.22,8.71,1.83,12.87l.23,0c1.38-4,2.9-8.45,4.39-12.22l7.19-19.15,9,.95Zm6.58-22.35-18.71-2,.72-6.83,18.71,2Z" transform="translate(-10.24 -12.79)"/><path class="cls-1" d="M130.63,299.26c-4.75,12.07-15.49,15.93-24.68,12.31a16.46,16.46,0,0,1-9.09-9l6.41-3.57a9.85,9.85,0,0,0,5.29,5.43c5,2,10.66-.89,13.53-8.18,3-7.48,1.18-13.2-4.14-15.29a10.29,10.29,0,0,0-8.46.6l-2.3-6.88a16.12,16.12,0,0,1,13.85-.71C130.27,277.57,135.45,287,130.63,299.26Z" transform="translate(-10.24 -12.79)"/><path class="cls-1" d="M93.43,275.51l-5.28,27.28-7.64-5.56L83,287.91c.88-3,1.65-5.78,2.53-8.89l-.2-.14c-2.68,1.8-5.18,3.33-7.77,5.07l-8.11,5.21L62,283.72l24.33-13.41L94.49,259l7.15,5.2Z" transform="translate(-10.24 -12.79)"/><path class="cls-1" d="M45.35,265.63l-5.09-7.24,25.92-18.23L57.3,227.53l6.06-4.27,14,19.86Z" transform="translate(-10.24 -12.79)"/><path class="cls-1" d="M26,234.48l-3.6-8.08,35.71-15.92,3.6,8.08Z" transform="translate(-10.24 -12.79)"/><path class="cls-1" d="M50.81,207.39l-7-3.66c1.77-3.23,2.62-7.11,1.94-10.26-.79-3.6-2.6-5.05-4.87-4.56s-2.7,2.87-3.34,6.51l-1,5.43c-.74,4.31-3.17,8.77-8.72,10-6.33,1.39-12.62-3.16-14.37-11.11a18.12,18.12,0,0,1,2.31-13.39l6.4,3.17a12.72,12.72,0,0,0-1.25,8.58c.65,3,2.31,4.6,4.49,4.13,2.35-.52,2.65-3.2,3.24-6.83l.91-5.3c.86-5.08,3.33-8.67,8.73-9.85,6.34-1.39,13,2.69,15,11.79A21.51,21.51,0,0,1,50.81,207.39Z" transform="translate(-10.24 -12.79)"/><path class="cls-1" d="M18,165.92l-.38,10.75-7.41-.26,1.08-30.35,7.41.26-.38,10.76L50,158.21,49.71,167Z" transform="translate(-10.24 -12.79)"/><path class="cls-1" d="M14,132.5l7.16-23.44,7.09,2.17-4.57,15,7.51,2.29,3.89-12.75,7.1,2.16-3.9,12.76,8.62,2.63,4.75-15.55,7.09,2.16-7.34,24Z" transform="translate(-10.24 -12.79)"/><path class="cls-1" d="M28,93.66l5-7.56,21.86,2.2,9.29,1.51.14-.2c-3.68-1.93-8.65-4.36-12.49-6.9L40.29,75.1l4.64-7L77.56,89.62l-5,7.56L50.67,95l-9.25-1.48-.14.2c3.83,2,8.6,4.32,12.44,6.86l11.58,7.65-4.64,7Z" transform="translate(-10.24 -12.79)"/><path class="cls-1" d="M56.1,56.67l6.41-6.09L89.45,78.92,83,85Z" transform="translate(-10.24 -12.79)"/><path class="cls-1" d="M74.43,40l7.8-4.6L100.9,47l7.69,5.43.21-.12c-2.46-3.35-5.86-7.71-8.2-11.68l-7-11.9,7.26-4.27L120.7,58.15l-7.8,4.6L94.21,51.14l-7.67-5.4-.21.13c2.55,3.5,5.82,7.65,8.16,11.62l7.05,11.95-7.25,4.28Z" transform="translate(-10.24 -12.79)"/><path class="cls-1" d="M120.57,37.47c-2.88-12.65,3.86-21.9,14-24.21a17,17,0,0,1,13.16,2.21L144.48,22a10.11,10.11,0,0,0-7.89-1.39c-5.87,1.33-9,6.89-7.25,14.53,1.78,7.84,6.37,11.59,13.55,10a7.11,7.11,0,0,0,3.78-2.06l-1.5-6.58-6.32,1.44-1.6-7,14-3.18,4,17.58c-2,3.17-6.21,6.27-11.53,7.48C133.19,55.16,123.49,50.31,120.57,37.47Z" transform="translate(-10.24 -12.79)"/></g></g></svg>
