<svg xmlns="http://www.w3.org/2000/svg" viewBox="0 0 313.63 313.09"><defs><style>.cls-1{fill:#000000;}</style></defs><g id="Capa_2" data-name="Capa 2"><g id="Capa_1-2" data-name="Capa 1"><path class="cls-1" d="M190.61,35.91A7.94,7.94,0,1,1,206,39.65a7.94,7.94,0,1,1-15.42-3.74Z" transform="translate(-10.55 -10.35)"/><path class="cls-1" d="M255.39,47.17l-8.45-6.65,4.58-5.83,23.87,18.78L270.8,59.3l-8.46-6.66-19.6,24.9-7-5.46Z" transform="translate(-10.55 -10.35)"/><path class="cls-1" d="M267.43,72.4c10.35-7.49,20.52-5.94,26.7,2.61s4.43,18.71-5.88,26.17-20.79,6.13-27-2.42S257.08,79.88,267.43,72.4Zm15.51,21.44c6.35-4.6,8.13-10,5-14.36s-8.85-4.34-15.2.26S264.33,90,267.46,94.29,276.58,98.43,282.94,93.84Z" transform="translate(-10.55 -10.35)"/><path class="cls-1" d="M321.53,134.46l.51,9L304,147.24c-4.09.74-8.18,1.54-12.26,2.28v.24c4.16.53,8.37,1.08,12.48,1.63l18.47,3.18.42,7.48-18,5.23c-3.92,1-8.09,2-12.21,3v.24c4.2.28,8.39.59,12.44.88l18.39,1.68.47,8.43-39.43-4.74-.63-11.1,17.52-4.81c3-.79,6.08-1.49,9-2.08l0-.24c-2.94-.3-6.1-.62-9.15-1.07l-17.94-2.7-.62-10.9Z" transform="translate(-10.55 -10.35)"/><path class="cls-1" d="M318.88,203.44l-2.81,10.2-41,1.42,2.49-9,20.45.35c4.06,0,8.79.21,13,.29l.06-.23c-3.72-2-7.85-4.23-11.33-6.32L282.06,189.9l2.4-8.71Zm-21-10.14-5,18.14-6.63-1.83,5-18.13Z" transform="translate(-10.55 -10.35)"/><path class="cls-1" d="M281.66,235.13l1.65,8.17L258,242.48l5.15-8.45Zm25.88,1.17-7.33,12c-4.32,7.08-10.31,11.39-18.25,6.55-7.68-4.68-7.45-12.49-3.13-19.58l2.73-4.48-12-7.32,4.6-7.55Zm-22.34,2c-2.42,4-2,7.14,1.26,9.14s5.71.55,8.13-3.42l2.35-3.86-9.39-5.72Z" transform="translate(-10.55 -10.35)"/><path class="cls-1" d="M281.75,273.86l-6.79,6L254.44,272l-8.59-3.88-.18.16c3.05,2.82,7.21,6.46,10.26,9.92l9.15,10.35-6.32,5.58-25.88-29.32,6.79-6,20.55,7.86,8.56,3.84.18-.16c-3.17-2.95-7.17-6.41-10.22-9.87l-9.19-10.4,6.32-5.58Z" transform="translate(-10.55 -10.35)"/><path class="cls-1" d="M210.16,297.93c2.39,12.55-3.32,21.1-13.68,23.08s-18.82-3.91-21.21-16.41,3.25-21.43,13.61-23.41S207.76,285.39,210.16,297.93Zm-26,5c1.47,7.7,5.64,11.62,10.88,10.62s7.68-6.18,6.21-13.89-5.71-11.94-10.95-10.94S182.69,295.2,184.17,302.9Z" transform="translate(-10.55 -10.35)"/><path class="cls-1" d="M163.14,323.44l-24.58-2.32.7-7.38L155,315.23l.85-9-13.47-1.27.69-7.38,13.48,1.27L158,283.68l8.8.83Z" transform="translate(-10.55 -10.35)"/><path class="cls-1" d="M105.48,289.62c-7,10.91-18.3,12.59-26.61,7.24a16.46,16.46,0,0,1-7.14-10.63l7-2.24a9.83,9.83,0,0,0,4.11,6.35c4.51,2.9,10.63,1.22,14.88-5.37,4.35-6.76,3.73-12.71-1.08-15.81a10.29,10.29,0,0,0-8.41-1.06l-.91-7.19a16.08,16.08,0,0,1,13.72,2C109.37,268.28,112.61,278.54,105.48,289.62Z" transform="translate(-10.55 -10.35)"/><path class="cls-1" d="M75.58,270.31c-9.61,8.41-19.87,7.81-26.82-.13S42.62,252,52.2,243.58s20.13-8,27.07-.1S85.2,261.9,75.58,270.31ZM58.16,250.4c-5.9,5.16-7.17,10.74-3.66,14.75s9.22,3.5,15.12-1.66,7.42-11,3.91-15S64.06,245.23,58.16,250.4Z" transform="translate(-10.55 -10.35)"/><path class="cls-1" d="M29,241.87l-3.54-8.34,13.94-17,6.4-6.91-.09-.22C42,211.41,37.27,214.2,33,216L20.3,221.39,17,213.63l36-15.25,3.53,8.35-14,17-6.36,6.89.09.22c3.81-2.07,8.36-4.77,12.6-6.56l12.78-5.41L65,226.62Z" transform="translate(-10.55 -10.35)"/><path class="cls-1" d="M47.22,195l-6.59-4.38c2.1-3,3.36-6.8,3-10-.41-3.66-2.05-5.3-4.36-5s-3,2.57-4,6.12L33.68,187c-1.19,4.21-4.08,8.39-9.72,9-6.44.72-12.23-4.46-13.13-12.55a18.1,18.1,0,0,1,3.7-13.07l6,3.82a12.78,12.78,0,0,0-2.14,8.4c.34,3,1.81,4.82,4,4.57s3-2.9,3.93-6.44l1.46-5.18c1.39-5,4.22-8.27,9.71-8.88,6.46-.72,12.65,4,13.68,13.3A21.53,21.53,0,0,1,47.22,195Z" transform="translate(-10.55 -10.35)"/><path class="cls-1" d="M10.55,155.15l2.12-13.27c1.36-8.49,5.5-14.86,14.88-13.36,9.08,1.45,12,9,10.68,17.21l-.77,4.77,13.1,2.09-1.39,8.74Zm20.66-10c.77-4.8-1-7.41-5-8s-5.9,1.7-6.66,6.43l-.64,4,11.65,1.86Z" transform="translate(-10.55 -10.35)"/><path class="cls-1" d="M19.7,114.27,22.92,106l36.43,14.2-3.21,8.24Z" transform="translate(-10.55 -10.35)"/><path class="cls-1" d="M29.22,91.75,37,80c4.6-6.9,10.77-11,18.5-5.79,7.48,5,6.92,12.79,2.32,19.69L55,98.29l11.71,7.81-4.91,7.35Zm22.4-1.12c2.58-3.87,2.31-7-.89-9.19s-5.67-.78-8.25,3.09L40,88.29l9.14,6.1ZM55,94l-1.32-8.23L79,87.61,73.5,95.84Z" transform="translate(-10.55 -10.35)"/><path class="cls-1" d="M61.33,51.61l8-6.88,34.76,21.72L97,72.53,80.25,60.82c-3.36-2.27-7.16-5.1-10.61-7.52l-.18.16c2,3.75,4.15,7.9,5.86,11.58l9,18.38L77.43,89.3ZM73.06,71.74,87.35,59.5l4.47,5.22L77.53,77Z" transform="translate(-10.55 -10.35)"/><path class="cls-1" d="M95.51,49.66c-5.52-11.73-1-22.2,8-26.41a16.5,16.5,0,0,1,12.8-.42l-1.8,7.11a9.88,9.88,0,0,0-7.57.13c-4.85,2.29-6.67,8.37-3.33,15.46,3.43,7.27,8.8,9.9,14,7.47a10.34,10.34,0,0,0,5.36-6.57l6.58,3a16.1,16.1,0,0,1-9,10.58C111.55,64.27,101.13,61.58,95.51,49.66Z" transform="translate(-10.55 -10.35)"/><path class="cls-1" d="M138.33,38.87,122.12,16.31l9.3-1.74,5.08,8.19c1.57,2.69,3.07,5.16,4.73,7.94l.23-.05c.54-3.18,1.14-6,1.65-9.13l1.79-9.47,9.07-1.7L147,37.25,149.58,51l-8.69,1.62Z" transform="translate(-10.55 -10.35)"/></g></g></svg>
