<svg xmlns="http://www.w3.org/2000/svg" viewBox="0 0 308.72 313"><defs><style>.cls-1{fill:#000000;}</style></defs><g id="Capa_2" data-name="Capa 2"><g id="Capa_1-2" data-name="Capa 1"><path class="cls-1" d="M205.45,39.47A7.94,7.94,0,1,1,220.33,45a7.94,7.94,0,1,1-14.88-5.49Z" transform="translate(-10.55 -10.35)"/><path class="cls-1" d="M280.28,70.42,273.54,62l5.79-4.64,19,23.69-5.79,4.64-6.73-8.4L261.08,97.14l-5.53-6.9Z" transform="translate(-10.55 -10.35)"/><path class="cls-1" d="M286.32,97.74c11.79-4.93,21.33-1.1,25.4,8.63s0,19.24-11.69,24.15-21.65,1.23-25.72-8.5S274.53,102.67,286.32,97.74Zm10.21,24.42c7.24-3,10.21-7.92,8.15-12.84s-7.63-6.24-14.86-3.22-10.52,8.05-8.46,13S289.3,125.18,296.53,122.16Z" transform="translate(-10.55 -10.35)"/><path class="cls-1" d="M303.05,184c12.63,3,18,13,15.72,22.67A16.53,16.53,0,0,1,311.12,217l-4.44-5.84a9.82,9.82,0,0,0,4.61-6c1.23-5.22-2.4-10.43-10-12.23-7.82-1.84-13.23.72-14.54,6.29a10.28,10.28,0,0,0,1.8,8.28l-6.47,3.26a16.09,16.09,0,0,1-2.69-13.6C281.64,187.47,290.23,181,303.05,184Z" transform="translate(-10.55 -10.35)"/><path class="cls-1" d="M283.77,231.46l1.91,8.11H260.33l4.88-8.61Zm25.9.35-6.95,12.25c-4.08,7.21-9.94,11.71-18,7.13-7.82-4.43-7.83-12.25-3.74-19.47l2.58-4.56-12.24-6.94,4.35-7.69Zm-22.26,2.74c-2.29,4-1.79,7.2,1.55,9.1s5.72.37,8-3.68L299.2,236l-9.56-5.42Z" transform="translate(-10.55 -10.35)"/><path class="cls-1" d="M285.39,269.35,268,286.63l-5.23-5.26,11.11-11-5.53-5.57-9.46,9.4-5.23-5.26,9.46-9.4-6.35-6.39-11.54,11.46L240,259.31l17.8-17.69Z" transform="translate(-10.55 -10.35)"/><path class="cls-1" d="M248.82,300l-9.18,5.24-30-27.87,8.12-4.64L232,287.4c2.88,2.86,6.08,6.36,9,9.38l.21-.12c-1.22-4.05-2.58-8.54-3.58-12.48l-5.35-19.74,7.85-4.48Zm-7.72-22-16.34,9.32-3.41-6,16.34-9.33Z" transform="translate(-10.55 -10.35)"/><path class="cls-1" d="M213.06,308.44l10.33-3,2.09,7.11-29.14,8.55L194.25,314l10.33-3-8.92-30.4,8.48-2.49Z" transform="translate(-10.55 -10.35)"/><path class="cls-1" d="M182.66,322.75l-24.49.61L158,316l15.66-.4-.2-7.84-13.33.33-.18-7.42,13.33-.33-.23-9-16.25.4-.19-7.41,25.1-.63Z" transform="translate(-10.55 -10.35)"/><path class="cls-1" d="M105.48,289.62c-7,10.91-18.3,12.59-26.61,7.24a16.46,16.46,0,0,1-7.14-10.63l7-2.24a9.83,9.83,0,0,0,4.11,6.35c4.51,2.9,10.63,1.22,14.88-5.37,4.35-6.76,3.73-12.71-1.08-15.81a10.29,10.29,0,0,0-8.41-1.06l-.91-7.19a16.08,16.08,0,0,1,13.72,2C109.37,268.28,112.61,278.54,105.48,289.62Z" transform="translate(-10.55 -10.35)"/><path class="cls-1" d="M75.58,270.31c-9.61,8.41-19.88,7.81-26.82-.13s-6.14-18.22,3.43-26.6,20.14-8,27.08-.1S85.2,261.9,75.58,270.31ZM58.16,250.4c-5.9,5.16-7.17,10.74-3.66,14.75s9.22,3.5,15.12-1.66,7.42-11,3.91-15S64.06,245.23,58.16,250.4Z" transform="translate(-10.55 -10.35)"/><path class="cls-1" d="M29,241.87l-3.54-8.34,13.94-17,6.4-6.91-.09-.22c-3.65,2-8.42,4.79-12.66,6.58L20.3,221.39,17,213.63l36-15.25,3.53,8.35-14,17-6.36,6.89.09.22c3.81-2.07,8.36-4.77,12.6-6.56l12.78-5.41L65,226.62Z" transform="translate(-10.55 -10.35)"/><path class="cls-1" d="M47.22,195l-6.59-4.38c2.1-3,3.36-6.8,3-10-.41-3.67-2.05-5.31-4.36-5s-3,2.57-4,6.12L33.68,187c-1.19,4.21-4.08,8.39-9.72,9-6.44.72-12.23-4.46-13.13-12.55a18.1,18.1,0,0,1,3.7-13.07l6,3.82a12.78,12.78,0,0,0-2.14,8.4c.34,3,1.81,4.82,4,4.57s3-2.9,3.93-6.44l1.46-5.18c1.39-5,4.22-8.27,9.71-8.88,6.46-.72,12.65,4,13.68,13.3A21.53,21.53,0,0,1,47.22,195Z" transform="translate(-10.55 -10.35)"/><path class="cls-1" d="M10.55,155.15l2.12-13.27c1.36-8.49,5.5-14.86,14.88-13.36,9.08,1.45,12,9,10.68,17.21l-.77,4.77,13.1,2.09-1.39,8.74Zm20.66-10c.77-4.8-1-7.41-5-8s-5.9,1.7-6.66,6.43l-.64,4,11.65,1.86Z" transform="translate(-10.55 -10.35)"/><path class="cls-1" d="M19.7,114.27,22.91,106l36.44,14.2-3.21,8.24Z" transform="translate(-10.55 -10.35)"/><path class="cls-1" d="M29.22,91.75,37,80c4.6-6.9,10.77-11,18.5-5.79,7.48,5,6.92,12.79,2.32,19.69L55,98.29l11.71,7.81-4.91,7.35Zm22.4-1.12c2.58-3.87,2.31-7-.89-9.19s-5.67-.78-8.25,3.09L40,88.29l9.14,6.1ZM55,94l-1.31-8.23L79,87.61,73.5,95.84Z" transform="translate(-10.55 -10.35)"/><path class="cls-1" d="M61.33,51.61l8-6.88,34.76,21.72L97,72.53,80.25,60.82c-3.36-2.27-7.16-5.1-10.61-7.52l-.18.16c2,3.75,4.15,7.9,5.86,11.58l9,18.38L77.43,89.3ZM73.06,71.74,87.35,59.5l4.47,5.22L77.53,77Z" transform="translate(-10.55 -10.35)"/><path class="cls-1" d="M95.51,49.66c-5.53-11.73-1-22.2,8-26.41a16.5,16.5,0,0,1,12.8-.42L114.48,30a9.84,9.84,0,0,0-7.57.12c-4.85,2.29-6.67,8.37-3.33,15.46,3.43,7.27,8.8,9.9,14,7.47a10.34,10.34,0,0,0,5.36-6.57l6.58,3a16.1,16.1,0,0,1-9,10.58C111.55,64.27,101.13,61.58,95.51,49.66Z" transform="translate(-10.55 -10.35)"/><path class="cls-1" d="M138.33,38.87,122.12,16.31l9.3-1.74,5.08,8.19c1.57,2.69,3.07,5.16,4.73,7.94l.23-.05c.54-3.18,1.14-6,1.65-9.13l1.79-9.47,9.07-1.7L147,37.25,149.58,51l-8.69,1.62Z" transform="translate(-10.55 -10.35)"/></g></g></svg>
