<svg xmlns="http://www.w3.org/2000/svg" viewBox="0 0 313.25 313.32"><defs><style>.cls-1{fill:#000;}</style></defs><g id="Capa_2" data-name="Capa 2"><g id="Capa_1-2" data-name="Capa 1"><path class="cls-1" d="M175.07,34a7.94,7.94,0,1,1,15.75,1.9A7.94,7.94,0,1,1,175.07,34Z" transform="translate(-10.55 -10.35)"/><path class="cls-1" d="M225.06,29.82l-9.77-4.5,3.1-6.74L246,31.29,242.87,38l-9.78-4.5L219.84,62.31l-8-3.7Z" transform="translate(-10.55 -10.35)"/><path class="cls-1" d="M242.68,51.57C251,41.89,261.27,41,269.26,47.93s8.65,17.18.34,26.82-18.81,10.79-26.8,3.9S234.34,61.25,242.68,51.57Zm20.05,17.27c5.12-5.94,5.59-11.65,1.55-15.13s-9.62-2.17-14.73,3.77-5.81,11.91-1.77,15.39S257.62,74.78,262.73,68.84Z" transform="translate(-10.55 -10.35)"/><path class="cls-1" d="M301.12,85.64,306,95.58c5.22,10.75,3.24,20.26-8.84,26.14S276,123.43,271,113.13L266,102.75ZM277,109.09c2.9,6,7.78,8.58,16.19,4.49s9.07-9.4,6.17-15.36l-.73-1.51-22.37,10.88Z" transform="translate(-10.55 -10.35)"/><path class="cls-1" d="M318,126.81l2,8.6-38.07,8.93-2-8.6Z" transform="translate(-10.55 -10.35)"/><path class="cls-1" d="M288.46,148.73l6.21,4.9c-2.34,2.85-3.9,6.5-3.81,9.72.11,3.69,1.61,5.45,3.93,5.39s3.19-2.32,4.5-5.77l2-5.15c1.53-4.09,4.75-8,10.43-8.19,6.48-.19,11.81,5.45,12.05,13.59A18.08,18.08,0,0,1,319,175.94l-5.7-4.3a12.73,12.73,0,0,0,2.83-8.2c-.09-3.05-1.41-4.95-3.65-4.89-2.4.07-3.2,2.65-4.46,6.1l-1.87,5c-1.79,4.83-4.89,7.9-10.41,8.06-6.5.19-12.28-5.06-12.54-14.38A21.53,21.53,0,0,1,288.46,148.73Z" transform="translate(-10.55 -10.35)"/><path class="cls-1" d="M313,195.64l2.38-10.49,7.23,1.64-6.73,29.61-7.23-1.64,2.39-10.5-30.9-7,2-8.62Z" transform="translate(-10.55 -10.35)"/><path class="cls-1" d="M284.7,229.76l2,8.08-25.34.35,4.75-8.68Zm25.9,0-6.76,12.36c-4,7.27-9.78,11.85-17.93,7.39-7.89-4.32-8-12.14-4-19.41l2.52-4.6-12.35-6.76L276.3,211Zm-22.22,3.07c-2.23,4.08-1.69,7.23,1.69,9.08s5.72.28,7.95-3.8l2.18-4-9.65-5.28Z" transform="translate(-10.55 -10.35)"/><path class="cls-1" d="M287.66,266.05l-5.8,6.67-29.5-25.67,5.81-6.67Z" transform="translate(-10.55 -10.35)"/><path class="cls-1" d="M271.19,284l-10.72,8c-6.5,4.86-12.88,6.85-17.35.87-2.1-2.81-2.77-7-.93-9.85l-.15-.19a8.9,8.9,0,0,1-11.17-3.13c-4.77-6.38-1.51-13.26,5.3-18.35l11.61-8.68Zm-30.36-17.61c-3.86,2.89-4.83,5.75-2.7,8.6s4.85,2.4,8.74-.51l4-3-6.05-8.08Zm10.59,12.83c-3.43,2.57-3.87,5.16-2.16,7.44s4.11,2.15,7.41-.32l3.36-2.51-5.29-7.08Z" transform="translate(-10.55 -10.35)"/><path class="cls-1" d="M226.85,289.12l7,19.77-8.33,3-7.33-20.62c-2.57-7.22-5.73-8.9-9.85-7.44s-5.64,4.82-3.08,12l7.33,20.62-8,2.86-7-19.77c-4.39-12.37-1.28-19.54,8.25-22.93S222.45,276.75,226.85,289.12Z" transform="translate(-10.55 -10.35)"/><path class="cls-1" d="M179.23,315.24l10.75-.57.39,7.41L160,323.67l-.39-7.4,10.75-.57-1.67-31.65,8.83-.46Z" transform="translate(-10.55 -10.35)"/><path class="cls-1" d="M146.37,322.2l-24-5,1.52-7.26,15.33,3.2,1.61-7.68-13-2.73,1.52-7.26,13.05,2.73,1.84-8.82L128.28,286l1.52-7.26,24.57,5.14Z" transform="translate(-10.55 -10.35)"/><path class="cls-1" d="M105.48,289.62c-7,10.91-18.3,12.59-26.61,7.24a16.46,16.46,0,0,1-7.14-10.63l7-2.24a9.86,9.86,0,0,0,4.11,6.35c4.51,2.9,10.63,1.22,14.88-5.37,4.35-6.76,3.73-12.71-1.08-15.81a10.29,10.29,0,0,0-8.41-1.06l-.91-7.19a16.08,16.08,0,0,1,13.72,2C109.37,268.28,112.61,278.54,105.48,289.62Z" transform="translate(-10.55 -10.35)"/><path class="cls-1" d="M75.58,270.31c-9.61,8.41-19.88,7.81-26.82-.13s-6.14-18.22,3.43-26.6,20.14-8,27.08-.1S85.2,261.9,75.58,270.31ZM58.16,250.4c-5.9,5.16-7.17,10.74-3.66,14.75s9.22,3.5,15.12-1.66,7.42-11,3.91-15S64.06,245.23,58.16,250.4Z" transform="translate(-10.55 -10.35)"/><path class="cls-1" d="M29,241.87l-3.54-8.34,13.94-17,6.4-6.91-.09-.22C42,211.41,37.27,214.2,33,216L20.3,221.39,17,213.63l36-15.25,3.53,8.35-14,17-6.35,6.9.09.22c3.81-2.07,8.36-4.77,12.6-6.56l12.78-5.41L65,226.62Z" transform="translate(-10.55 -10.35)"/><path class="cls-1" d="M47.22,195l-6.59-4.38c2.1-3,3.36-6.8,3-10-.41-3.66-2.05-5.3-4.36-5s-3,2.57-4,6.12L33.68,187c-1.19,4.21-4.08,8.39-9.72,9-6.44.72-12.23-4.46-13.13-12.55a18.1,18.1,0,0,1,3.7-13.07l6,3.82a12.78,12.78,0,0,0-2.14,8.4c.33,3,1.81,4.82,4,4.57s3-2.9,3.93-6.44l1.46-5.18c1.39-5,4.22-8.27,9.71-8.88,6.46-.72,12.65,4,13.68,13.3A21.53,21.53,0,0,1,47.22,195Z" transform="translate(-10.55 -10.35)"/><path class="cls-1" d="M10.55,155.15l2.12-13.27c1.36-8.5,5.5-14.86,14.88-13.36,9.08,1.45,12,9,10.67,17.21l-.76,4.77,13.1,2.09-1.39,8.74Zm20.66-10c.77-4.8-1-7.41-5-8s-5.9,1.7-6.66,6.43l-.64,4,11.65,1.86Z" transform="translate(-10.55 -10.35)"/><path class="cls-1" d="M19.7,114.27,22.91,106l36.44,14.2-3.21,8.24Z" transform="translate(-10.55 -10.35)"/><path class="cls-1" d="M29.22,91.75,37,80c4.6-6.9,10.77-11,18.5-5.79,7.48,5,6.92,12.79,2.32,19.68L55,98.29l11.71,7.81-4.91,7.35Zm22.4-1.12c2.58-3.87,2.31-7-.89-9.19s-5.67-.78-8.25,3.09L40,88.29l9.14,6.1ZM55,94l-1.31-8.23L79,87.61,73.5,95.84Z" transform="translate(-10.55 -10.35)"/><path class="cls-1" d="M61.33,51.61l8-6.88,34.76,21.72L97,72.53,80.25,60.82c-3.36-2.27-7.16-5.1-10.61-7.52l-.18.16c2,3.75,4.15,7.9,5.86,11.58l9,18.38L77.43,89.3ZM73.06,71.74,87.35,59.5l4.47,5.22L77.53,77Z" transform="translate(-10.55 -10.35)"/><path class="cls-1" d="M95.51,49.66c-5.53-11.74-1-22.2,8-26.41a16.5,16.5,0,0,1,12.8-.42l-1.8,7.11a9.88,9.88,0,0,0-7.57.13c-4.85,2.29-6.67,8.37-3.33,15.46,3.43,7.27,8.8,9.9,14,7.47a10.33,10.33,0,0,0,5.37-6.57l6.58,3a16.12,16.12,0,0,1-9,10.58C111.55,64.27,101.13,61.58,95.51,49.66Z" transform="translate(-10.55 -10.35)"/><path class="cls-1" d="M138.33,38.87,122.12,16.31l9.3-1.74,5.08,8.19c1.57,2.69,3.07,5.16,4.73,7.94l.23-.05c.54-3.18,1.14-6,1.65-9.13l1.78-9.47,9.08-1.7L147,37.25,149.58,51l-8.69,1.62Z" transform="translate(-10.55 -10.35)"/></g></g></svg>
